<?xml version="1.0" standalone="no"?>
<!DOCTYPE svg PUBLIC "-//W3C//DTD SVG 20010904//EN"
 "http://www.w3.org/TR/2001/REC-SVG-20010904/DTD/svg10.dtd">
<svg version="1.0" xmlns="http://www.w3.org/2000/svg"
 width="512.000000pt" height="512.000000pt" viewBox="0 0 512.000000 512.000000"
 preserveAspectRatio="xMidYMid meet">

<g transform="translate(0.000000,512.000000) scale(0.100000,-0.100000)"
fill="#000000" stroke="none">
<path d="M4585 2550 c0 -949 1 -1337 2 -863 2 475 2 1251 0 1725 -1 475 -2 87
-2 -862z"/>
<path d="M1540 3988 c-28 -15 -53 -39 -67 -64 l-23 -39 0 -932 c0 -636 3 -941
11 -960 24 -65 88 -106 165 -106 49 0 72 12 420 209 202 115 374 210 381 212
10 3 13 -56 13 -297 l0 -301 28 -30 c15 -16 115 -78 222 -138 107 -60 316
-177 464 -261 148 -83 274 -151 281 -151 14 0 248 130 243 136 -2 1 -226 129
-498 283 l-495 279 -3 314 -2 313 237 134 c131 74 357 202 502 284 l263 150
-43 27 c-24 15 -80 46 -124 70 l-80 43 -374 -211 c-206 -117 -375 -212 -377
-212 -2 0 -4 151 -4 336 l0 336 -37 36 c-21 19 -245 152 -498 296 -515 291
-516 291 -605 244z m529 -485 c190 -107 352 -200 359 -206 9 -7 12 -90 12
-353 l0 -343 -307 -174 c-170 -96 -338 -192 -375 -212 l-68 -37 0 767 c0 710
1 767 17 761 9 -4 172 -95 362 -203z"/>
<path d="M4571 784 c0 -11 3 -14 6 -6 3 7 2 16 -1 19 -3 4 -6 -2 -5 -13z"/>
<path d="M4542 706 c-20 -45 -80 -102 -139 -132 l-58 -29 -1785 0 -1785 0 -47
22 c-27 12 -48 20 -48 17 0 -3 21 -15 48 -27 l47 -22 1785 0 1785 0 46 21 c26
12 65 38 88 59 41 37 87 102 79 111 -3 2 -10 -7 -16 -20z"/>
</g>
</svg>
